<svg width="16" height="20" viewBox="0 0 16 20" fill="none" xmlns="http://www.w3.org/2000/svg">
<path fill-rule="evenodd" clip-rule="evenodd" d="M7.85 1.7C6.1103 1.7 4.7 3.1103 4.7 4.85C4.7 6.5897 6.1103 8 7.85 8C9.5897 8 11 6.5897 11 4.85C11 3.1103 9.5897 1.7 7.85 1.7ZM3 4.85C3 2.17142 5.17142 0 7.85 0C10.5286 0 12.7 2.17142 12.7 4.85C12.7 7.52858 10.5286 9.7 7.85 9.7C5.17142 9.7 3 7.52858 3 4.85ZM3.28038 13.6354C2.10399 14.2236 1.7 14.8789 1.7 15.35C1.7 15.8211 2.10399 16.4764 3.28038 17.0646C4.40593 17.6274 6.02035 18 7.85 18C9.67965 18 11.2941 17.6274 12.4196 17.0646C13.596 16.4764 14 15.8211 14 15.35C14 14.8789 13.596 14.2236 12.4196 13.6354C11.2941 13.0726 9.67965 12.7 7.85 12.7C6.02035 12.7 4.40593 13.0726 3.28038 13.6354ZM2.52012 12.1149C3.92807 11.4109 5.81366 11 7.85 11C9.88634 11 11.7719 11.4109 13.1799 12.1149C14.537 12.7934 15.7 13.8881 15.7 15.35C15.7 16.8119 14.537 17.9066 13.1799 18.5851C11.7719 19.2891 9.88634 19.7 7.85 19.7C5.81366 19.7 3.92807 19.2891 2.52012 18.5851C1.16301 17.9066 0 16.8119 0 15.35C0 13.8881 1.16301 12.7934 2.52012 12.1149Z" fill="black"/>
</svg>
