<svg width="24" height="24" viewBox="0 0 24 24" fill="none" xmlns="http://www.w3.org/2000/svg">
<path d="M14.1106 11.5955C13.7449 11.4579 13.7449 10.9328 13.7222 10.5671C13.6308 9.26442 14.0879 7.27569 13.5394 6.43017C13.151 5.92695 11.2764 5.97303 10.1339 6.04178C9.81352 6.08786 9.42513 6.15588 9.15085 6.29339C8.87657 6.4309 8.60229 6.6591 8.60229 6.86463C8.60229 7.16159 9.28836 7.11624 9.53924 7.50462C9.81352 7.91641 9.81352 8.80728 9.81352 9.5387C9.81352 10.3842 9.67601 11.5048 9.33371 11.5501C8.80782 11.5728 8.51086 11.0469 8.23658 10.6585C7.68801 9.90441 7.13945 8.96673 6.72766 8.05245C6.52213 7.57264 6.4073 7.04675 6.11034 6.84122C5.6532 6.52086 4.83036 6.49819 4.03018 6.52086C3.29876 6.54354 2.24698 6.45211 2.04145 6.88657C1.88127 7.36638 2.22431 7.82352 2.40716 8.21264C3.34411 10.2467 4.34981 12.0299 5.58445 13.721C6.72766 15.2979 7.80138 16.5552 9.90421 17.2179C10.4989 17.4007 13.1042 17.9266 13.6301 17.2179C13.8129 16.9436 13.7676 16.3263 13.859 15.8691C13.9504 15.412 14.0645 14.9549 14.499 14.9322C14.8647 14.9095 15.0702 15.2291 15.2992 15.4581C15.5508 15.7097 15.7563 15.9152 15.9392 16.1441C16.3736 16.5786 16.8308 17.1725 17.3793 17.4015C18.1334 17.7218 19.2993 17.6304 20.3964 17.5843C21.288 17.5616 21.928 17.3788 21.9968 16.8529C22.0429 16.4411 21.585 15.8472 21.3107 15.5042C20.6246 14.6586 20.305 14.407 19.5275 13.6295C19.1845 13.2865 18.75 12.9208 18.75 12.5097C18.7273 12.2581 18.9329 12.0299 19.1157 11.7783C19.9159 10.5897 20.7161 9.74423 21.4475 8.50959C21.653 8.14388 22.1335 7.29836 21.9507 6.88657C21.7452 6.42943 20.602 6.56621 19.8932 6.56621C18.9789 6.56621 17.7904 6.49746 17.5614 6.68031C17.127 6.97727 16.9441 7.45781 16.7386 7.91495C16.2815 8.96673 15.6641 10.0405 15.0241 10.8406C14.7952 11.1149 14.3615 11.6861 14.1099 11.5947L14.1106 11.5955Z" fill="#A6A6A6"/>
</svg>
