<svg width="56" height="48" viewBox="0 0 56 48" fill="none" xmlns="http://www.w3.org/2000/svg">
<path d="M0 16C0 7.16344 7.16344 0 16 0H40C48.8366 0 56 7.16344 56 16V32C56 40.8366 48.8366 48 40 48H16C7.16344 48 0 40.8366 0 32V16Z" fill="#1C1C1C"/>
<path d="M36.0343 18.0577C35.8234 17.8045 35.5593 17.6009 35.2607 17.4613C34.9622 17.3217 34.6367 17.2495 34.3071 17.2499H22.1814L22.1499 16.9867C22.0855 16.4395 21.8225 15.935 21.4108 15.5688C20.9991 15.2027 20.4674 15.0003 19.9165 15H19.75C19.5511 15 19.3603 15.079 19.2197 15.2197C19.079 15.3603 19 15.5511 19 15.75C19 15.9489 19.079 16.1396 19.2197 16.2803C19.3603 16.4209 19.5511 16.5 19.75 16.5H19.9165C20.1002 16.5 20.2775 16.5674 20.4147 16.6895C20.552 16.8116 20.6397 16.9798 20.6612 17.1622L21.6932 25.937C21.8003 26.8495 22.2388 27.691 22.9253 28.3017C23.6119 28.9123 24.4988 29.2497 25.4176 29.2496H33.2496C33.4485 29.2496 33.6393 29.1706 33.78 29.03C33.9206 28.8893 33.9996 28.6986 33.9996 28.4997C33.9996 28.3008 33.9206 28.11 33.78 27.9693C33.6393 27.8287 33.4485 27.7497 33.2496 27.7497H25.4176C24.9534 27.7484 24.501 27.6035 24.1223 27.335C23.7437 27.0664 23.4574 26.6874 23.3026 26.2497H32.2424C33.1216 26.2498 33.9729 25.9409 34.6475 25.3771C35.3221 24.8132 35.7771 24.0303 35.9331 23.165L36.5218 19.8996C36.5806 19.5756 36.5674 19.2427 36.4831 18.9244C36.3989 18.6061 36.2457 18.3102 36.0343 18.0577ZM35.0496 19.6334L34.4601 22.8988C34.3665 23.4185 34.093 23.8888 33.6875 24.2272C33.2821 24.5656 32.7705 24.7506 32.2424 24.7498H23.0641L22.3584 18.7499H34.3071C34.4173 18.7492 34.5263 18.7729 34.6263 18.8191C34.7263 18.8653 34.8149 18.933 34.8857 19.0174C34.9566 19.1017 35.0081 19.2006 35.0364 19.3071C35.0647 19.4136 35.0692 19.525 35.0496 19.6334Z" fill="white"/>
<path d="M24.25 33C25.0784 33 25.7499 32.3284 25.7499 31.5C25.7499 30.6716 25.0784 30.0001 24.25 30.0001C23.4216 30.0001 22.75 30.6716 22.75 31.5C22.75 32.3284 23.4216 33 24.25 33Z" fill="white"/>
<path d="M31.7497 33C32.5781 33 33.2496 32.3284 33.2496 31.5C33.2496 30.6716 32.5781 30.0001 31.7497 30.0001C30.9212 30.0001 30.2497 30.6716 30.2497 31.5C30.2497 32.3284 30.9212 33 31.7497 33Z" fill="white"/>
</svg>
