<svg width="32" height="21" viewBox="0 0 32 21" fill="none" xmlns="http://www.w3.org/2000/svg">
<g clip-path="url(#clip0_129_1458)">
<path d="M23.0861 9.40332V14.4376H25.8459V11.4543H28.9737C30.2892 11.445 31.4069 10.592 31.8301 9.40332H23.0861Z" fill="#1C1C1C"/>
<path d="M22.7181 5.25452C22.8791 7.31017 24.8018 8.93697 27.1476 8.93697C27.1568 8.93697 31.9451 8.93697 31.9451 8.93697C31.9819 8.75052 32.0003 8.55474 32.0003 8.35431C32.0003 6.64826 30.6434 5.2685 28.9645 5.25452H22.7181Z" fill="#1C1C1C"/>
<path d="M18.6333 8.8857C18.6655 8.82976 18.7161 8.79713 18.7805 8.79713C18.8725 8.79713 18.9415 8.87172 18.9461 8.96028V14.3907H21.7059V5.25452H18.9461C18.5965 5.2685 18.2009 5.52487 18.0537 5.84651L15.8597 10.6197C15.8551 10.6384 15.8459 10.657 15.8367 10.6757C15.8045 10.7223 15.7493 10.7549 15.6849 10.7549C15.5837 10.7549 15.5009 10.671 15.5009 10.5684V5.25452H12.7411V14.3907H15.5009C15.8459 14.3721 16.2322 14.1157 16.3794 13.7987L18.6333 8.89968C18.6287 8.89502 18.6333 8.89036 18.6333 8.8857Z" fill="#1C1C1C"/>
<path d="M8.33003 9.04433L6.71554 14.3909H4.72848L3.11859 9.03967C3.10479 8.95576 3.03119 8.89051 2.9392 8.89051C2.838 8.89051 2.75981 8.97441 2.75981 9.0723V14.3862H0V5.25H2.36884H3.07259C3.57855 5.25 4.11212 5.65088 4.25931 6.14032L5.60242 10.5919C5.67141 10.8156 5.7772 10.811 5.8462 10.5919L7.18931 6.14032C7.3365 5.64621 7.87006 5.25 8.37602 5.25H9.07978H11.4486V14.3862H8.6888V9.0723C8.6888 9.0723 8.6888 9.0723 8.6888 9.06764C8.6888 8.96509 8.60601 8.88584 8.50941 8.88584C8.41742 8.89051 8.34383 8.95576 8.33003 9.04433Z" fill="#1C1C1C"/>
</g>
<defs>
<clipPath id="clip0_129_1458">
<rect width="32" height="21" fill="white"/>
</clipPath>
</defs>
</svg>
